<svg id="Layer_1" enable-background="new 0 0 68 68" height="512" viewBox="0 0 68 68" width="512" xmlns="http://www.w3.org/2000/svg"><g><g><g><g><path d="m1.8410308 49.0991325v-43.5477013c0-1.8548121 1.5036223-3.3584344 3.3584344-3.3584344h20.4673138c.9396858 0 1.8363934.3936825 2.4723721 1.0854485l5.383112 5.8553162h22.6134605c1.8548126 0 3.3584328 1.5036221 3.3584328 3.3584347v36.6069374c0 1.8548126-1.5036201 3.3584328-3.3584328 3.3584328h-50.9362583c-1.8548122-.0000011-3.3584345-1.5036212-3.3584345-3.3584339z" fill="#ffab02"/></g></g><g><g><path d="m55.2379112 15.7309952v19.9925995h-42.537941v-19.9925995c0-1.6650858 1.3498182-3.014904 3.0149031-3.014904h36.5081377c1.6650849 0 3.0149002 1.3498182 3.0149002 3.014904z" fill="#e9edf4"/></g></g><g><g><path d="m66.1188889 21.3967113-5.5832749 27.8214703c-.3777962 1.8825531-2.03125 3.2371597-3.9513397 3.2371597h-51.4659724c-1.6961818 0-2.9679663-1.5523682-2.6342268-3.2153931l5.7467771-28.6362c.1888981-.9412766 1.015626-1.618578 1.9756699-1.618578h53.9366969c1.2721405.0000002 2.225975 1.1642744 1.9756699 2.4115411z" fill="#ffc90d"/></g></g></g><g><g><g><path d="m32.728508 56.6591721-6.4712162 8.5120621c-.6344719.8459091-1.8821926.8459167-2.527195.0106049l-6.4607277-8.5225525c-.7931252-1.0462379-.0468941-2.5483589 1.2659912-2.5483704l2.5829353-.0000191-.0000839-13.5542755c-.0000114-2.1373787 1.7326698-3.870079 3.8700523-3.8700943h.0105267c2.1373825-.0000153 3.8700829 1.7326584 3.8700943 3.8700371l.0000858 13.5542793 2.5906353-.0000191c1.3111611-.0000115 2.0513612 1.5015335 1.2689019 2.5483475z" fill="#f14f4a"/></g></g><g><g><path d="m36.0971146 45.8340797 6.4712181-8.5120659c.6344719-.8459091 1.8821945-.8459167 2.527195-.010601l6.4607315 8.5225525c.7931252 1.0462379.0468941 2.5483589-1.2659912 2.5483665l-2.5829353.0000191.0000877 13.5542793c.0000114 2.1373749-1.7326698 3.870079-3.8700562 3.8700943h-.0105247c-2.1373863.0000153-3.8700867-1.7326584-3.8700981-3.8700371l-.0000877-13.5542793-2.5906372.0000191c-1.3111612.0000115-2.0513612-1.5015335-1.2689019-2.5483475z" fill="#8dd1fe"/></g></g></g></g></svg>